<mxfile host="app.diagrams.net" agent="Mozilla/5.0 (Windows NT 10.0; Win64; x64) AppleWebKit/537.36 (KHTML, like Gecko) Chrome/136.0.0.0 Whale/4.32.315.15 Safari/537.36" version="27.1.5">
  <diagram name="페이지-1" id="J6VXx_6CUHGOWfriXPr5">
    <mxGraphModel dx="1175" dy="990" grid="1" gridSize="10" guides="1" tooltips="1" connect="1" arrows="1" fold="1" page="1" pageScale="1" pageWidth="1920" pageHeight="1080" math="0" shadow="0">
      <root>
        <mxCell id="0" />
        <mxCell id="1" parent="0" />
        <mxCell id="sstBEkkRBJ28tQxqU71m-2" value="&lt;h1 style=&quot;margin-top: 0px;&quot;&gt;적응형 교통체계&lt;/h1&gt;&lt;div&gt;교차로의 도로별 교통량 정보를 이용하여 적응형 신호 도입.&lt;/div&gt;&lt;div&gt;버스정보시스템(BIS)와 연계하여 대중교통 흐름 최적화.&lt;/div&gt;" style="text;html=1;whiteSpace=wrap;overflow=hidden;rounded=0;" parent="1" vertex="1">
          <mxGeometry x="400" y="25" width="300" height="90" as="geometry" />
        </mxCell>
        <mxCell id="sstBEkkRBJ28tQxqU71m-3" value="&lt;h1 style=&quot;margin-top: 0px;&quot;&gt;사고 대응&lt;/h1&gt;&lt;div&gt;사고 감지 시 서버를 통하여 교통 정보에 사고 반영.&lt;/div&gt;&lt;div&gt;경찰 및 보험사와 연계하여 사고 처리 상황 반영.&lt;/div&gt;" style="text;html=1;whiteSpace=wrap;overflow=hidden;rounded=0;" parent="1" vertex="1">
          <mxGeometry x="730" y="20" width="280" height="90" as="geometry" />
        </mxCell>
        <mxCell id="sstBEkkRBJ28tQxqU71m-4" value="&lt;h1 style=&quot;margin-top: 0px;&quot;&gt;도시 ITS 인프라 구축 및 운영&lt;/h1&gt;&lt;div&gt;도심 주요 교차로/도로에 센서를 설치하여 교통 데이터 수집.&lt;/div&gt;&lt;div&gt;수집된 정보를 기반으로 교통 흐름 최적화.&lt;/div&gt;&lt;div&gt;시민 안내, 사고 대응 체계 구축.&lt;/div&gt;&lt;div&gt;&lt;br&gt;&lt;/div&gt;" style="text;html=1;whiteSpace=wrap;overflow=hidden;rounded=0;" parent="1" vertex="1">
          <mxGeometry x="20" y="30" width="300" height="100" as="geometry" />
        </mxCell>
        <mxCell id="M-toXlOXN0p2g3CMsTm5-2" value="&lt;h1 style=&quot;margin-top: 0px;&quot;&gt;화물 물류 체계 활용&lt;/h1&gt;&lt;div&gt;대부분의 도심 교차로는 승용차, 화물차, 대중교통 혼합 구간임.&amp;nbsp;&lt;/div&gt;&lt;div&gt;실시간 정보를 수집하고 분석하고 반영하여 물류 시스템 최적화에 기여함과 동시에 교통 흐름 최적화와 운송 안전을 함께 도모하고자 함&lt;/div&gt;&lt;div&gt;&lt;br&gt;&lt;/div&gt;" style="text;html=1;whiteSpace=wrap;overflow=hidden;rounded=0;" vertex="1" parent="1">
          <mxGeometry x="20" y="150" width="670" height="90" as="geometry" />
        </mxCell>
        <mxCell id="M-toXlOXN0p2g3CMsTm5-5" value="&lt;h1 style=&quot;margin-top: 0px;&quot;&gt;운송사와 연계&lt;/h1&gt;&lt;div&gt;교차로 교통 정보를 수집, 분석하고 운송 정보 시스템과 연계하여 도심 운송 교통을 최적화&lt;/div&gt;&lt;div&gt;도로 교통량, 교차로 사고 현황 등을 반영하여 운송 노동자에게 최적의 경로를 제공&lt;/div&gt;" style="text;html=1;whiteSpace=wrap;overflow=hidden;rounded=0;" vertex="1" parent="1">
          <mxGeometry x="20" y="250" width="450" height="90" as="geometry" />
        </mxCell>
        <mxCell id="M-toXlOXN0p2g3CMsTm5-6" value="&lt;h1 style=&quot;margin-top: 0px;&quot;&gt;미래지향 자율 주행 시대 대비&lt;/h1&gt;&lt;div&gt;자율 주행 시스템의 도입에 앞서서 인프라를 미리 구축함.&lt;/div&gt;&lt;div&gt;자율 주행 시스템은 일반 대중교통이나 승용차 뿐만 아니라 물류 시스템에도 혁신을 가져올 것으로 예상함.&lt;/div&gt;&lt;div&gt;센서를 통한 실시간 수집 및 분석은 자율 주행 교통 체계를 위한 기반 마련이라고 볼 수도 있음.&lt;/div&gt;" style="text;html=1;whiteSpace=wrap;overflow=hidden;rounded=0;" vertex="1" parent="1">
          <mxGeometry x="20" y="350" width="690" height="120" as="geometry" />
        </mxCell>
        <mxCell id="M-toXlOXN0p2g3CMsTm5-7" value="&lt;h1 style=&quot;margin-top: 0px;&quot;&gt;스마트 항만&lt;/h1&gt;&lt;div&gt;스마트 항만 시스템과 연계하여 실시간 교통 변화에 따라 운송 상황을 예측하여 항만 시스템에 반영함으로써 최적화된 항만 물류 시스템에 기여할 수 있음&lt;/div&gt;" style="text;html=1;whiteSpace=wrap;overflow=hidden;rounded=0;" vertex="1" parent="1">
          <mxGeometry x="30" y="470" width="800" height="80" as="geometry" />
        </mxCell>
        <mxCell id="M-toXlOXN0p2g3CMsTm5-8" value="사용자" style="swimlane;whiteSpace=wrap;html=1;" vertex="1" parent="1">
          <mxGeometry x="20" y="1100" width="200" height="620" as="geometry" />
        </mxCell>
        <mxCell id="M-toXlOXN0p2g3CMsTm5-9" value="운송업 종사자" style="shape=umlActor;verticalLabelPosition=bottom;verticalAlign=top;html=1;outlineConnect=0;" vertex="1" parent="M-toXlOXN0p2g3CMsTm5-8">
          <mxGeometry x="85" y="50" width="30" height="60" as="geometry" />
        </mxCell>
        <mxCell id="M-toXlOXN0p2g3CMsTm5-12" value="지자체 교통 운영 담당자" style="shape=umlActor;verticalLabelPosition=bottom;verticalAlign=top;html=1;outlineConnect=0;" vertex="1" parent="M-toXlOXN0p2g3CMsTm5-8">
          <mxGeometry x="85" y="170" width="30" height="60" as="geometry" />
        </mxCell>
        <mxCell id="M-toXlOXN0p2g3CMsTm5-13" value="교통 시스템 관리자" style="shape=umlActor;verticalLabelPosition=bottom;verticalAlign=top;html=1;outlineConnect=0;" vertex="1" parent="M-toXlOXN0p2g3CMsTm5-8">
          <mxGeometry x="85" y="390" width="30" height="60" as="geometry" />
        </mxCell>
        <mxCell id="M-toXlOXN0p2g3CMsTm5-11" value="교통 관제 센터" style="shape=umlActor;verticalLabelPosition=bottom;verticalAlign=top;html=1;outlineConnect=0;" vertex="1" parent="M-toXlOXN0p2g3CMsTm5-8">
          <mxGeometry x="85" y="280" width="30" height="60" as="geometry" />
        </mxCell>
        <mxCell id="M-toXlOXN0p2g3CMsTm5-14" value="서비스" style="swimlane;whiteSpace=wrap;html=1;" vertex="1" parent="1">
          <mxGeometry x="240" y="1100" width="290" height="620" as="geometry" />
        </mxCell>
        <mxCell id="M-toXlOXN0p2g3CMsTm5-15" value="실시간 교통 상황 조회" style="rounded=1;whiteSpace=wrap;html=1;" vertex="1" parent="M-toXlOXN0p2g3CMsTm5-14">
          <mxGeometry x="15" y="40" width="120" height="60" as="geometry" />
        </mxCell>
        <mxCell id="M-toXlOXN0p2g3CMsTm5-16" value="교통 상황 분석 기반&lt;div&gt;최적 경로 서비스&lt;/div&gt;" style="rounded=1;whiteSpace=wrap;html=1;" vertex="1" parent="M-toXlOXN0p2g3CMsTm5-14">
          <mxGeometry x="15" y="120" width="120" height="60" as="geometry" />
        </mxCell>
        <mxCell id="M-toXlOXN0p2g3CMsTm5-17" value="사고/정체/공사 등&lt;div&gt;교통 이벤트 알림&lt;/div&gt;" style="rounded=1;whiteSpace=wrap;html=1;" vertex="1" parent="M-toXlOXN0p2g3CMsTm5-14">
          <mxGeometry x="150" y="40" width="120" height="60" as="geometry" />
        </mxCell>
        <mxCell id="M-toXlOXN0p2g3CMsTm5-18" value="교차로 교통량 분석&lt;div&gt;기반 적응형 신호&lt;/div&gt;" style="rounded=1;whiteSpace=wrap;html=1;" vertex="1" parent="M-toXlOXN0p2g3CMsTm5-14">
          <mxGeometry x="15" y="280" width="120" height="60" as="geometry" />
        </mxCell>
        <mxCell id="M-toXlOXN0p2g3CMsTm5-19" value="운영자 대시보드&lt;div&gt;및 알림 설정&lt;/div&gt;" style="rounded=1;whiteSpace=wrap;html=1;" vertex="1" parent="M-toXlOXN0p2g3CMsTm5-14">
          <mxGeometry x="150" y="200" width="120" height="60" as="geometry" />
        </mxCell>
        <mxCell id="M-toXlOXN0p2g3CMsTm5-20" value="센서 운영 및 설정 관리" style="rounded=1;whiteSpace=wrap;html=1;" vertex="1" parent="M-toXlOXN0p2g3CMsTm5-14">
          <mxGeometry x="150" y="120" width="120" height="60" as="geometry" />
        </mxCell>
        <mxCell id="M-toXlOXN0p2g3CMsTm5-21" value="도로 정보 통계 리포트" style="rounded=1;whiteSpace=wrap;html=1;" vertex="1" parent="M-toXlOXN0p2g3CMsTm5-14">
          <mxGeometry x="15" y="200" width="120" height="60" as="geometry" />
        </mxCell>
        <mxCell id="M-toXlOXN0p2g3CMsTm5-31" value="도로 상태 분석 및&lt;div&gt;유지보수 알림&lt;/div&gt;" style="rounded=1;whiteSpace=wrap;html=1;" vertex="1" parent="M-toXlOXN0p2g3CMsTm5-14">
          <mxGeometry x="150" y="360" width="120" height="60" as="geometry" />
        </mxCell>
        <mxCell id="M-toXlOXN0p2g3CMsTm5-49" value="보행자 감지 안전" style="rounded=1;whiteSpace=wrap;html=1;" vertex="1" parent="M-toXlOXN0p2g3CMsTm5-14">
          <mxGeometry x="150" y="280" width="120" height="60" as="geometry" />
        </mxCell>
        <mxCell id="M-toXlOXN0p2g3CMsTm5-22" value="시스템" style="swimlane;whiteSpace=wrap;html=1;" vertex="1" parent="1">
          <mxGeometry x="550" y="1100" width="490" height="620" as="geometry" />
        </mxCell>
        <mxCell id="M-toXlOXN0p2g3CMsTm5-23" value="감지 시스템" style="swimlane;fontStyle=0;childLayout=stackLayout;horizontal=1;startSize=30;horizontalStack=0;resizeParent=1;resizeParentMax=0;resizeLast=0;collapsible=1;marginBottom=0;whiteSpace=wrap;html=1;" vertex="1" parent="M-toXlOXN0p2g3CMsTm5-22">
          <mxGeometry x="10" y="40" width="140" height="90" as="geometry" />
        </mxCell>
        <mxCell id="M-toXlOXN0p2g3CMsTm5-24" value="영상 정보 수집" style="text;strokeColor=none;fillColor=none;align=left;verticalAlign=middle;spacingLeft=4;spacingRight=4;overflow=hidden;points=[[0,0.5],[1,0.5]];portConstraint=eastwest;rotatable=0;whiteSpace=wrap;html=1;" vertex="1" parent="M-toXlOXN0p2g3CMsTm5-23">
          <mxGeometry y="30" width="140" height="30" as="geometry" />
        </mxCell>
        <mxCell id="M-toXlOXN0p2g3CMsTm5-25" value="센서 정보 수집" style="text;strokeColor=none;fillColor=none;align=left;verticalAlign=middle;spacingLeft=4;spacingRight=4;overflow=hidden;points=[[0,0.5],[1,0.5]];portConstraint=eastwest;rotatable=0;whiteSpace=wrap;html=1;" vertex="1" parent="M-toXlOXN0p2g3CMsTm5-23">
          <mxGeometry y="60" width="140" height="30" as="geometry" />
        </mxCell>
        <mxCell id="M-toXlOXN0p2g3CMsTm5-27" value="교통 상황 분석 시스템" style="swimlane;fontStyle=0;childLayout=stackLayout;horizontal=1;startSize=30;horizontalStack=0;resizeParent=1;resizeParentMax=0;resizeLast=0;collapsible=1;marginBottom=0;whiteSpace=wrap;html=1;" vertex="1" parent="M-toXlOXN0p2g3CMsTm5-22">
          <mxGeometry x="170" y="40" width="140" height="120" as="geometry" />
        </mxCell>
        <mxCell id="M-toXlOXN0p2g3CMsTm5-28" value="실시간 교통량 분석" style="text;strokeColor=none;fillColor=none;align=left;verticalAlign=middle;spacingLeft=4;spacingRight=4;overflow=hidden;points=[[0,0.5],[1,0.5]];portConstraint=eastwest;rotatable=0;whiteSpace=wrap;html=1;" vertex="1" parent="M-toXlOXN0p2g3CMsTm5-27">
          <mxGeometry y="30" width="140" height="30" as="geometry" />
        </mxCell>
        <mxCell id="M-toXlOXN0p2g3CMsTm5-29" value="교통 이벤트 분석" style="text;strokeColor=none;fillColor=none;align=left;verticalAlign=middle;spacingLeft=4;spacingRight=4;overflow=hidden;points=[[0,0.5],[1,0.5]];portConstraint=eastwest;rotatable=0;whiteSpace=wrap;html=1;" vertex="1" parent="M-toXlOXN0p2g3CMsTm5-27">
          <mxGeometry y="60" width="140" height="30" as="geometry" />
        </mxCell>
        <mxCell id="M-toXlOXN0p2g3CMsTm5-30" value="도로 및 기기 상태 분석" style="text;strokeColor=none;fillColor=none;align=left;verticalAlign=middle;spacingLeft=4;spacingRight=4;overflow=hidden;points=[[0,0.5],[1,0.5]];portConstraint=eastwest;rotatable=0;whiteSpace=wrap;html=1;" vertex="1" parent="M-toXlOXN0p2g3CMsTm5-27">
          <mxGeometry y="90" width="140" height="30" as="geometry" />
        </mxCell>
        <mxCell id="M-toXlOXN0p2g3CMsTm5-32" value="알림 시스템" style="swimlane;fontStyle=0;childLayout=stackLayout;horizontal=1;startSize=30;horizontalStack=0;resizeParent=1;resizeParentMax=0;resizeLast=0;collapsible=1;marginBottom=0;whiteSpace=wrap;html=1;" vertex="1" parent="M-toXlOXN0p2g3CMsTm5-22">
          <mxGeometry x="330" y="40" width="140" height="120" as="geometry" />
        </mxCell>
        <mxCell id="M-toXlOXN0p2g3CMsTm5-33" value="사고 알림" style="text;strokeColor=none;fillColor=none;align=left;verticalAlign=middle;spacingLeft=4;spacingRight=4;overflow=hidden;points=[[0,0.5],[1,0.5]];portConstraint=eastwest;rotatable=0;whiteSpace=wrap;html=1;" vertex="1" parent="M-toXlOXN0p2g3CMsTm5-32">
          <mxGeometry y="30" width="140" height="30" as="geometry" />
        </mxCell>
        <mxCell id="M-toXlOXN0p2g3CMsTm5-34" value="공사 정보 알림" style="text;strokeColor=none;fillColor=none;align=left;verticalAlign=middle;spacingLeft=4;spacingRight=4;overflow=hidden;points=[[0,0.5],[1,0.5]];portConstraint=eastwest;rotatable=0;whiteSpace=wrap;html=1;" vertex="1" parent="M-toXlOXN0p2g3CMsTm5-32">
          <mxGeometry y="60" width="140" height="30" as="geometry" />
        </mxCell>
        <mxCell id="M-toXlOXN0p2g3CMsTm5-35" value="정체 정보 알림" style="text;strokeColor=none;fillColor=none;align=left;verticalAlign=middle;spacingLeft=4;spacingRight=4;overflow=hidden;points=[[0,0.5],[1,0.5]];portConstraint=eastwest;rotatable=0;whiteSpace=wrap;html=1;" vertex="1" parent="M-toXlOXN0p2g3CMsTm5-32">
          <mxGeometry y="90" width="140" height="30" as="geometry" />
        </mxCell>
        <mxCell id="M-toXlOXN0p2g3CMsTm5-36" value="교통 최적화" style="swimlane;fontStyle=0;childLayout=stackLayout;horizontal=1;startSize=30;horizontalStack=0;resizeParent=1;resizeParentMax=0;resizeLast=0;collapsible=1;marginBottom=0;whiteSpace=wrap;html=1;" vertex="1" parent="M-toXlOXN0p2g3CMsTm5-22">
          <mxGeometry x="170" y="180" width="140" height="120" as="geometry" />
        </mxCell>
        <mxCell id="M-toXlOXN0p2g3CMsTm5-37" value="차량 유형 분석" style="text;strokeColor=none;fillColor=none;align=left;verticalAlign=middle;spacingLeft=4;spacingRight=4;overflow=hidden;points=[[0,0.5],[1,0.5]];portConstraint=eastwest;rotatable=0;whiteSpace=wrap;html=1;" vertex="1" parent="M-toXlOXN0p2g3CMsTm5-36">
          <mxGeometry y="30" width="140" height="30" as="geometry" />
        </mxCell>
        <mxCell id="M-toXlOXN0p2g3CMsTm5-38" value="실시간 상황에 따른 최적 경로 제공" style="text;strokeColor=none;fillColor=none;align=left;verticalAlign=middle;spacingLeft=4;spacingRight=4;overflow=hidden;points=[[0,0.5],[1,0.5]];portConstraint=eastwest;rotatable=0;whiteSpace=wrap;html=1;" vertex="1" parent="M-toXlOXN0p2g3CMsTm5-36">
          <mxGeometry y="60" width="140" height="30" as="geometry" />
        </mxCell>
        <mxCell id="M-toXlOXN0p2g3CMsTm5-39" value="예정 시각 산출" style="text;strokeColor=none;fillColor=none;align=left;verticalAlign=middle;spacingLeft=4;spacingRight=4;overflow=hidden;points=[[0,0.5],[1,0.5]];portConstraint=eastwest;rotatable=0;whiteSpace=wrap;html=1;" vertex="1" parent="M-toXlOXN0p2g3CMsTm5-36">
          <mxGeometry y="90" width="140" height="30" as="geometry" />
        </mxCell>
        <mxCell id="M-toXlOXN0p2g3CMsTm5-40" value="센서 관리" style="swimlane;fontStyle=0;childLayout=stackLayout;horizontal=1;startSize=30;horizontalStack=0;resizeParent=1;resizeParentMax=0;resizeLast=0;collapsible=1;marginBottom=0;whiteSpace=wrap;html=1;" vertex="1" parent="M-toXlOXN0p2g3CMsTm5-22">
          <mxGeometry x="10" y="150" width="140" height="90" as="geometry" />
        </mxCell>
        <mxCell id="M-toXlOXN0p2g3CMsTm5-41" value="센서 상태 조회" style="text;strokeColor=none;fillColor=none;align=left;verticalAlign=middle;spacingLeft=4;spacingRight=4;overflow=hidden;points=[[0,0.5],[1,0.5]];portConstraint=eastwest;rotatable=0;whiteSpace=wrap;html=1;" vertex="1" parent="M-toXlOXN0p2g3CMsTm5-40">
          <mxGeometry y="30" width="140" height="30" as="geometry" />
        </mxCell>
        <mxCell id="M-toXlOXN0p2g3CMsTm5-42" value="센서 민감도 설정" style="text;strokeColor=none;fillColor=none;align=left;verticalAlign=middle;spacingLeft=4;spacingRight=4;overflow=hidden;points=[[0,0.5],[1,0.5]];portConstraint=eastwest;rotatable=0;whiteSpace=wrap;html=1;" vertex="1" parent="M-toXlOXN0p2g3CMsTm5-40">
          <mxGeometry y="60" width="140" height="30" as="geometry" />
        </mxCell>
        <mxCell id="M-toXlOXN0p2g3CMsTm5-44" value="적응형 신호" style="swimlane;fontStyle=0;childLayout=stackLayout;horizontal=1;startSize=30;horizontalStack=0;resizeParent=1;resizeParentMax=0;resizeLast=0;collapsible=1;marginBottom=0;whiteSpace=wrap;html=1;" vertex="1" parent="M-toXlOXN0p2g3CMsTm5-22">
          <mxGeometry x="330" y="180" width="150" height="120" as="geometry" />
        </mxCell>
        <mxCell id="M-toXlOXN0p2g3CMsTm5-45" value="교통량 기반 신호 기준 설정" style="text;strokeColor=none;fillColor=none;align=left;verticalAlign=middle;spacingLeft=4;spacingRight=4;overflow=hidden;points=[[0,0.5],[1,0.5]];portConstraint=eastwest;rotatable=0;whiteSpace=wrap;html=1;" vertex="1" parent="M-toXlOXN0p2g3CMsTm5-44">
          <mxGeometry y="30" width="150" height="30" as="geometry" />
        </mxCell>
        <mxCell id="M-toXlOXN0p2g3CMsTm5-47" value="대중교통 연계 신호" style="text;strokeColor=none;fillColor=none;align=left;verticalAlign=middle;spacingLeft=4;spacingRight=4;overflow=hidden;points=[[0,0.5],[1,0.5]];portConstraint=eastwest;rotatable=0;whiteSpace=wrap;html=1;" vertex="1" parent="M-toXlOXN0p2g3CMsTm5-44">
          <mxGeometry y="60" width="150" height="30" as="geometry" />
        </mxCell>
        <mxCell id="M-toXlOXN0p2g3CMsTm5-48" value="물류 상황 기반 신호" style="text;strokeColor=none;fillColor=none;align=left;verticalAlign=middle;spacingLeft=4;spacingRight=4;overflow=hidden;points=[[0,0.5],[1,0.5]];portConstraint=eastwest;rotatable=0;whiteSpace=wrap;html=1;" vertex="1" parent="M-toXlOXN0p2g3CMsTm5-44">
          <mxGeometry y="90" width="150" height="30" as="geometry" />
        </mxCell>
      </root>
    </mxGraphModel>
  </diagram>
</mxfile>
